<svg width="31" height="32" viewBox="0 0 31 32" fill="none" xmlns="http://www.w3.org/2000/svg">
<rect x="0.0258789" y="0.31517" width="30.7886" height="30.7886" rx="3.55253" fill="#384C6A"/>
<path d="M8.31513 23.4066H11.8677V17.4857C11.8677 17.1502 11.9811 16.869 12.2081 16.642C12.4351 16.415 12.7163 16.3016 13.0518 16.3016H17.7885C18.1241 16.3016 18.4053 16.415 18.6323 16.642C18.8592 16.869 18.9727 17.1502 18.9727 17.4857V23.4066H22.5252V12.749L15.4202 7.42023L8.31513 12.749V23.4066ZM5.94678 23.4066V12.749C5.94678 12.374 6.03066 12.0188 6.19841 11.6833C6.36617 11.3478 6.59807 11.0714 6.89412 10.8543L13.9992 5.52555C14.4136 5.20977 14.8873 5.05188 15.4202 5.05188C15.9531 5.05188 16.4267 5.20977 16.8412 5.52555L23.9463 10.8543C24.2423 11.0714 24.4742 11.3478 24.642 11.6833C24.8097 12.0188 24.8936 12.374 24.8936 12.749V23.4066C24.8936 24.0579 24.6617 24.6155 24.1979 25.0793C23.7341 25.5431 23.1765 25.775 22.5252 25.775H17.7885C17.453 25.775 17.1718 25.6615 16.9448 25.4345C16.7178 25.2075 16.6044 24.9263 16.6044 24.5908V18.6699H14.236V24.5908C14.236 24.9263 14.1225 25.2075 13.8956 25.4345C13.6686 25.6615 13.3874 25.775 13.0518 25.775H8.31513C7.66383 25.775 7.10628 25.5431 6.64248 25.0793C6.17868 24.6155 5.94678 24.0579 5.94678 23.4066Z" fill="white"/>
</svg>
