<svg width="41" height="42" viewBox="0 0 41 42" fill="none" xmlns="http://www.w3.org/2000/svg">
<rect y="0.601379" width="40.4556" height="40.4556" rx="6.06834" fill="#3A7CDE"/>
<path d="M12.1366 19.8178C11.8501 19.8178 11.6099 19.7208 11.416 19.527C11.2222 19.3331 11.1252 19.0929 11.1252 18.8064V12.738C11.1252 12.4515 11.2222 12.2113 11.416 12.0174C11.6099 11.8236 11.8501 11.7267 12.1366 11.7267H18.205C18.4915 11.7267 18.7317 11.8236 18.9256 12.0174C19.1194 12.2113 19.2164 12.4515 19.2164 12.738V18.8064C19.2164 19.0929 19.1194 19.3331 18.9256 19.527C18.7317 19.7208 18.4915 19.8178 18.205 19.8178H12.1366ZM22.2505 19.8178C21.964 19.8178 21.7238 19.7208 21.5299 19.527C21.3361 19.3331 21.2391 19.0929 21.2391 18.8064V12.738C21.2391 12.4515 21.3361 12.2113 21.5299 12.0174C21.7238 11.8236 21.964 11.7267 22.2505 11.7267H28.3189C28.6054 11.7267 28.8456 11.8236 29.0395 12.0174C29.2333 12.2113 29.3303 12.4515 29.3303 12.738V18.8064C29.3303 19.0929 29.2333 19.3331 29.0395 19.527C28.8456 19.7208 28.6054 19.8178 28.3189 19.8178H22.2505ZM12.1366 29.9317C11.8501 29.9317 11.6099 29.8347 11.416 29.6409C11.2222 29.447 11.1252 29.2068 11.1252 28.9203V22.8519C11.1252 22.5654 11.2222 22.3252 11.416 22.1313C11.6099 21.9375 11.8501 21.8405 12.1366 21.8405H18.205C18.4915 21.8405 18.7317 21.9375 18.9256 22.1313C19.1194 22.3252 19.2164 22.5654 19.2164 22.8519V28.9203C19.2164 29.2068 19.1194 29.447 18.9256 29.6409C18.7317 29.8347 18.4915 29.9317 18.205 29.9317H12.1366ZM25.2847 29.9317C24.9981 29.9317 24.7579 29.8347 24.5641 29.6409C24.3702 29.447 24.2733 29.2068 24.2733 28.9203V26.8975H22.2252C21.9387 26.8975 21.7027 26.8006 21.5173 26.6067C21.3319 26.4129 21.2391 26.1727 21.2391 25.8861C21.2391 25.5995 21.3361 25.3593 21.5299 25.1655C21.7238 24.9716 21.964 24.8747 22.2505 24.8747H24.2733V22.8267C24.2733 22.5401 24.3702 22.3041 24.5641 22.1187C24.7579 21.9333 24.9981 21.8405 25.2847 21.8405C25.5713 21.8405 25.8115 21.9375 26.0053 22.1313C26.1992 22.3252 26.2961 22.5654 26.2961 22.8519V24.8747H28.3442C28.6307 24.8747 28.8667 24.9716 29.0521 25.1655C29.2375 25.3593 29.3303 25.5995 29.3303 25.8861C29.3303 26.1727 29.2333 26.4129 29.0395 26.6067C28.8456 26.8006 28.6054 26.8975 28.3189 26.8975H26.2961V28.9456C26.2961 29.2321 26.1992 29.4681 26.0053 29.6535C25.8115 29.839 25.5713 29.9317 25.2847 29.9317ZM23.2619 13.7494V17.795H27.3075V13.7494H23.2619ZM13.148 13.7494V17.795H17.1936V13.7494H13.148ZM13.148 23.8633V27.9089H17.1936V23.8633H13.148Z" fill="white"/>
</svg>
