<svg width="26" height="26" viewBox="0 0 26 26" fill="none" xmlns="http://www.w3.org/2000/svg">
<path d="M13 23L9.825 20.15C8.625 19.0667 7.59583 18.1 6.7375 17.25C5.87917 16.4 5.17083 15.6 4.6125 14.85C4.05417 14.1 3.64583 13.375 3.3875 12.675C3.12917 11.975 3 11.2417 3 10.475C3 8.90833 3.525 7.60417 4.575 6.5625C5.625 5.52083 6.93333 5 8.5 5C9.36667 5 10.1917 5.18333 10.975 5.55C11.7583 5.91667 12.4333 6.43333 13 7.1C13.5667 6.43333 14.2417 5.91667 15.025 5.55C15.8083 5.18333 16.6333 5 17.5 5C18.85 5 19.9833 5.37917 20.9 6.1375C21.8167 6.89583 22.4417 7.85 22.775 9H20.65C20.35 8.33333 19.9083 7.83333 19.325 7.5C18.7417 7.16667 18.1333 7 17.5 7C16.65 7 15.9167 7.22917 15.3 7.6875C14.6833 8.14583 14.1083 8.75 13.575 9.5H12.425C11.9083 8.75 11.3208 8.14583 10.6625 7.6875C10.0042 7.22917 9.28333 7 8.5 7C7.55 7 6.72917 7.32917 6.0375 7.9875C5.34583 8.64583 5 9.475 5 10.475C5 11.025 5.11667 11.5833 5.35 12.15C5.58333 12.7167 6 13.3708 6.6 14.1125C7.2 14.8542 8.01667 15.7208 9.05 16.7125C10.0833 17.7042 11.4 18.9 13 20.3C13.4333 19.9167 13.9417 19.475 14.525 18.975C15.1083 18.475 15.575 18.0583 15.925 17.725L16.15 17.95L16.6375 18.4375L17.125 18.925L17.35 19.15C16.9833 19.4833 16.5167 19.8958 15.95 20.3875C15.3833 20.8792 14.8833 21.3167 14.45 21.7L13 23ZM20 19V16H17V14H20V11H22V14H25V16H22V19H20Z" fill="#DC2626"/>
</svg>
